<?xml version="1.0" standalone="no"?>
<!DOCTYPE svg PUBLIC "-//W3C//DTD SVG 20010904//EN"
 "http://www.w3.org/TR/2001/REC-SVG-20010904/DTD/svg10.dtd">
<svg version="1.0" xmlns="http://www.w3.org/2000/svg"
 width="1280.000000pt" height="1026.000000pt" viewBox="0 0 1280.000000 1026.000000"
 preserveAspectRatio="xMidYMid meet">
<metadata>
Created by potrace 1.15, written by Peter Selinger 2001-2017
</metadata>
<g transform="translate(0.000000,1026.000000) scale(0.100000,-0.100000)"
fill="#000000" stroke="none">
<path d="M10297 9294 c-682 -106 -1550 -607 -2617 -1512 l-165 -139 -32 79
c-105 260 -247 473 -453 678 -506 505 -1312 812 -2308 880 -338 23 -803 10
-1138 -30 -828 -100 -1506 -378 -1999 -817 -225 -201 -413 -475 -500 -728
-165 -483 -101 -1036 165 -1419 327 -471 922 -759 1660 -805 626 -38 1347 78
1950 316 154 61 444 196 518 243 31 19 92 124 92 158 0 7 -17 49 -37 94 -37
80 -37 81 -101 109 -35 16 -74 29 -86 29 -13 0 -65 -20 -117 -44 -251 -117
-634 -255 -894 -321 -665 -171 -1318 -146 -1747 65 -141 69 -232 133 -334 235
-103 102 -159 180 -216 301 -94 202 -121 481 -73 756 68 393 312 736 705 994
387 253 825 382 1412 415 573 32 1109 -57 1525 -251 620 -291 1012 -800 1107
-1440 l15 -104 -122 -125 c-504 -519 -867 -1023 -1193 -1656 -456 -887 -799
-2033 -909 -3035 -26 -240 -37 -536 -25 -649 14 -126 43 -238 67 -261 10 -9
44 -24 75 -33 l57 -15 62 37 c194 118 549 446 773 716 414 497 785 1076 1161
1809 615 1196 985 2333 1012 3101 l5 160 101 98 c585 566 1057 919 1552 1162
189 93 324 146 463 181 487 124 858 -23 914 -362 62 -372 -355 -1089 -1131
-1946 -166 -183 -458 -490 -476 -501 -7 -4 -58 -16 -111 -27 -796 -164 -1435
-708 -1770 -1506 -53 -127 -114 -306 -114 -334 0 -24 106 -110 135 -110 24 0
125 47 260 119 415 223 1060 738 1782 1425 l43 40 112 -17 c484 -73 838 -270
1009 -563 119 -203 159 -381 159 -707 0 -475 -104 -919 -321 -1376 -236 -496
-637 -959 -978 -1131 -324 -162 -604 -111 -723 131 -40 82 -52 163 -45 297 11
194 50 339 147 537 198 409 528 735 955 947 77 38 143 73 148 77 4 4 16 31 26
60 18 51 18 56 1 133 -9 44 -24 86 -32 95 -9 8 -46 23 -82 34 l-67 18 -97 -29
c-476 -142 -852 -339 -1166 -611 -345 -298 -547 -615 -622 -974 -28 -133 -26
-378 4 -498 45 -182 119 -312 249 -438 43 -42 113 -99 156 -127 286 -187 734
-220 1230 -93 324 84 672 261 957 487 104 83 359 336 461 459 497 595 760
1257 759 1910 -1 517 -149 925 -450 1238 -291 304 -679 482 -1206 552 -60 8
-115 15 -121 15 -7 0 40 51 105 112 757 724 1238 1267 1505 1699 291 472 362
847 223 1189 -113 278 -406 488 -759 545 -114 18 -359 18 -480 -1z m-3681
-3001 c-44 -687 -170 -1354 -370 -1958 -166 -502 -344 -883 -573 -1228 -87
-132 -251 -346 -264 -347 -8 0 -26 160 -34 295 -7 126 9 470 30 652 110 951
500 1849 1128 2595 45 54 84 98 86 98 2 0 1 -48 -3 -107z"/>
</g>
</svg>
